<svg class="icon" viewBox="0 0 1031 1024" xmlns="http://www.w3.org/2000/svg" width="128.875" height="128"><defs><style/></defs><path d="M934.979 61.809H96.737c-53.412 0-96.742 43.33-96.742 96.737v709.427c0 53.402 43.33 96.743 96.742 96.743h838.41c53.407 0 96.738-43.331 96.738-96.743V158.546c-.164-53.402-43.495-96.737-96.906-96.737zM158.54 303.82c0-35.605 28.887-64.497 64.491-64.497h193.485c35.605 0 64.492 28.892 64.492 64.497v257.971c0 35.6-28.887 64.492-64.497 64.492h-193.48c-35.604 0-64.491-28.893-64.491-64.492V303.826zm682.547 483.364H190.787a32.256 32.256 0 0 1 0-64.497h650.137a32.256 32.256 0 0 1 32.246 32.246c0 17.802-14.275 32.25-32.082 32.25zm0-161.24H583.122a32.256 32.256 0 0 1-32.246-32.24 32.256 32.256 0 0 1 32.246-32.246h257.966a32.256 32.256 0 0 1 32.256 32.246 32.256 32.256 0 0 1-32.256 32.24zm0-161.06H583.122a32.25 32.25 0 0 1 0-64.49h257.966c17.812 0 32.256 14.438 32.256 32.245s-14.449 32.246-32.256 32.246zm0-161.064H583.122c-17.807 0-32.246-14.449-32.246-32.251s14.444-32.24 32.246-32.24h257.966a32.256 32.256 0 0 1 0 64.49z"/></svg>