<svg class="icon" viewBox="0 0 1024 1024" xmlns="http://www.w3.org/2000/svg" width="128" height="128"><defs><style/></defs><path d="M315.865 63.216c-15.447 0-27.996 12.544-27.996 27.997v839.94c0 11.32 6.807 21.53 17.279 25.865 10.417 4.32 22.503 1.915 30.514-6.069l176.191-176.191 176.19 176.191a27.97 27.97 0 0 0 19.796 8.203 27.983 27.983 0 0 0 27.996-27.997V91.213c0-15.455-12.55-27.997-27.996-27.997H315.865zM679.84 863.563L531.647 715.37c-5.468-5.469-12.632-8.203-19.796-8.203s-14.328 2.734-19.796 8.203L343.862 863.563V119.212h335.976v744.351z"/></svg>